<svg xmlns="http://www.w3.org/2000/svg" viewBox="0 0 240 80" role="img" aria-labelledby="saakLogoTitle">
  <title id="saakLogoTitle">SAAK Team Training Center</title>
  <g fill="none" fill-rule="evenodd">
    <!-- Mountain / A mark -->
    <path d="M40 6 L8 62 L26 62 L46 26 L66 62 L84 62 Z" fill="#123a63"/>
    <path d="M46 34 L34 62 L40 62 L48 46 Z" fill="#f2a922"/>
    <path d="M46 34 L58 62 L52 62 L44 46 Z" fill="#f2a922"/>
    <!-- palm -->
    <rect x="44" y="50" width="4" height="12" fill="#123a63"/>
    <path d="M46 50 C40 46 34 47 30 44 C36 44 41 45 46 48 C44 42 40 39 38 34 C43 38 46 42 47 48 C48 42 51 38 56 34 C54 39 50 42 48 48 C53 45 58 44 64 44 C60 47 54 46 48 50 Z" fill="#123a63"/>
    <!-- Wordmark -->
    <text x="98" y="38" font-family="Segoe UI, Arial, sans-serif" font-size="19" font-weight="700" fill="#123a63">SAAK Team</text>
    <text x="98" y="58" font-family="Segoe UI, Arial, sans-serif" font-size="14" font-weight="500" fill="#4a5b6e">Training Center</text>
  </g>
</svg>
